# xmcd
#
# Track frame offsets:
#	150
#	23969
#	39284
#	53697
#	71216
#	90580
#	109435
#	131808
#	150841
#	166878
#	188455
#	204098
#	225808
#	242962
#	263661
#	282275
#	306541
#
# Disc length: 4378 seconds
#
# Revision: 1
# Processed by: cddbd v1.5.2PL0 Copyright (c) Steve Scherf et al.
# Submitted via: EZCDAudioConverter 1.3.4.1
#
DISCID=db111811
DTITLE=John Martyn - 1984   Sapphire
DYEAR=1984
DGENRE=
TTITLE0=Sapphire
TTITLE1=Over The Rainbow
TTITLE2=You Know
TTITLE3=Watching Her Eyes
TTITLE4=Fisherman's Dream
TTITLE5=Acid Rain
TTITLE6=Mad Dog Days
TTITLE7=Climb The Walls
TTITLE8=Coming In On Time
TTITLE9=Rope-Soul'd
TTITLE10=Love In Your Life
TTITLE11=Sapphire [Alternate Take]
TTITLE12=Over The Rainbow [Alternate Take]
TTITLE13=Fisherman's Dream [Alternate Take]
TTITLE14=Acid Rain [Alternate Take]
TTITLE15=Mad Dog Days [Alternate Take]
TTITLE16=Rope-Soul'd [Alternate Take]
EXTD=
EXTT0=
EXTT1=
EXTT2=
EXTT3=
EXTT4=
EXTT5=
EXTT6=
EXTT7=
EXTT8=
EXTT9=
EXTT10=
EXTT11=
EXTT12=
EXTT13=
EXTT14=
EXTT15=
EXTT16=
PLAYORDER=
